<svg width="184" height="63" viewBox="0 0 184 63" fill="none" xmlns="http://www.w3.org/2000/svg">
<g id="L-logos">
<g id="L_A1">
<g id="Group 40">
<g id="LOGO-CORE">
<path id="underline" d="M24.9674 34.3068L24.9576 34.486C24.9642 34.4863 24.9709 34.4863 24.9775 34.4859L24.9674 34.3068ZM17.1737 51.8425V51.6631H17.1633L17.153 51.6643L17.1737 51.8425ZM32.4477 51.8425L32.492 51.6686L32.4702 51.6631H32.4477V51.8425ZM41.5291 31.8369L41.7086 31.8354L41.7071 31.6575H41.5291V31.8369ZM24.9674 53.5147L24.9674 53.6941L24.9674 53.5147ZM8.00349 31.6731L8.05297 31.5005L7.84747 31.4416L7.82501 31.6542L8.00349 31.6731ZM7.95277 31.6575C7.85365 31.6575 7.7733 31.7378 7.7733 31.8369C7.7733 31.9361 7.85365 32.0164 7.95277 32.0164V31.6575ZM41.5291 31.6674H41.3497C41.3497 31.696 41.3324 31.754 41.2286 31.84C41.1271 31.9242 40.9678 32.0136 40.7484 32.105C40.3113 32.2873 39.6775 32.461 38.9043 32.624C37.3608 32.9495 35.2978 33.2254 33.229 33.4485C31.1616 33.6715 29.0936 33.8413 27.542 33.9553C26.7664 34.0123 26.12 34.0554 25.6677 34.0842C25.4415 34.0986 25.2638 34.1095 25.1427 34.1167C25.0822 34.1203 25.0358 34.123 25.0046 34.1249C24.9889 34.1258 24.9771 34.1264 24.9692 34.1269C24.9652 34.1271 24.9623 34.1273 24.9603 34.1274C24.9593 34.1275 24.9586 34.1275 24.9581 34.1275C24.9578 34.1275 24.9576 34.1276 24.9575 34.1276C24.9574 34.1276 24.9573 34.1276 24.9674 34.3068C24.9775 34.4859 24.9776 34.4859 24.9777 34.4859C24.9779 34.4859 24.9781 34.4859 24.9783 34.4859C24.9788 34.4859 24.9796 34.4858 24.9806 34.4858C24.9826 34.4857 24.9857 34.4855 24.9897 34.4853C24.9977 34.4848 25.0096 34.4841 25.0253 34.4832C25.0568 34.4814 25.1034 34.4786 25.1641 34.475C25.2857 34.4678 25.4638 34.4569 25.6905 34.4424C26.1438 34.4136 26.7914 34.3704 27.5684 34.3133C29.1222 34.1991 31.1946 34.029 33.2675 33.8054C35.3392 33.582 37.4166 33.3046 38.9784 32.9753C39.7579 32.8109 40.4179 32.6317 40.8866 32.4363C41.12 32.339 41.3166 32.2334 41.4577 32.1164C41.5965 32.0013 41.7086 31.852 41.7086 31.6674H41.5291ZM24.9674 34.3068C24.9773 34.1276 24.9772 34.1276 24.9771 34.1275C24.977 34.1275 24.9768 34.1275 24.9765 34.1275C24.976 34.1275 24.9753 34.1274 24.9742 34.1274C24.9722 34.1273 24.9691 34.1271 24.9651 34.1269C24.9569 34.1264 24.9448 34.1257 24.9287 34.1248C24.8966 34.123 24.849 34.1203 24.7868 34.1167C24.6624 34.1095 24.4798 34.0986 24.2474 34.0842C23.7827 34.0554 23.1186 34.0123 22.3217 33.9553C20.7277 33.8412 18.603 33.6715 16.4788 33.4485C14.3534 33.2253 12.2337 32.9494 10.6474 32.6238C9.85289 32.4607 9.20112 32.2869 8.75136 32.1044C8.52558 32.0128 8.36134 31.9231 8.25657 31.8385C8.14888 31.7516 8.13225 31.694 8.13225 31.6674H7.95277H7.7733C7.7733 31.854 7.8896 32.0036 8.03115 32.1179C8.17561 32.2345 8.37692 32.3398 8.61638 32.437C9.09711 32.6321 9.77462 32.8111 10.5752 32.9755C12.1792 33.3047 14.3131 33.582 16.4414 33.8054C18.5709 34.029 20.6998 34.1991 22.2961 34.3133C23.0943 34.3704 23.7595 34.4136 24.2252 34.4425C24.4581 34.4569 24.6411 34.4678 24.7659 34.475C24.8283 34.4787 24.8762 34.4814 24.9085 34.4832C24.9247 34.4841 24.9369 34.4848 24.9451 34.4853C24.9492 34.4855 24.9524 34.4857 24.9544 34.4858C24.9555 34.4858 24.9563 34.4859 24.9568 34.4859C24.9571 34.4859 24.9573 34.4859 24.9574 34.4859C24.9575 34.486 24.9576 34.486 24.9674 34.3068ZM7.95277 31.6674H8.13225C8.13225 31.5251 8.20994 31.3615 8.41386 31.1781C8.61721 30.9952 8.92742 30.8104 9.34368 30.6293C10.1749 30.2676 11.3887 29.9377 12.9024 29.6591C15.9268 29.1025 20.1125 28.7572 24.741 28.7572V28.5777V28.3982C20.0976 28.3982 15.8891 28.7445 12.8374 29.3061C11.3131 29.5867 10.0683 29.9225 9.20047 30.3002C8.7672 30.4887 8.41775 30.6919 8.17384 30.9112C7.93049 31.1301 7.7733 31.383 7.7733 31.6674H7.95277ZM24.741 28.5777V28.7572C29.3694 28.7572 33.5551 29.1025 36.5795 29.6591C38.0932 29.9377 39.307 30.2676 40.1382 30.6293C40.5545 30.8104 40.8647 30.9952 41.068 31.1781C41.272 31.3615 41.3497 31.5251 41.3497 31.6674H41.5291H41.7086C41.7086 31.383 41.5514 31.1301 41.3081 30.9112C41.0641 30.6919 40.7147 30.4887 40.2814 30.3002C39.4136 29.9225 38.1688 29.5867 36.6445 29.3061C33.5928 28.7445 29.3843 28.3982 24.741 28.3982V28.5777ZM34.3344 52.7965H34.1549C34.1549 52.884 34.1156 52.9854 34.0078 53.1018C33.8992 53.2191 33.7302 53.341 33.4975 53.4626C33.0323 53.7056 32.3474 53.9299 31.4861 54.1203C29.7663 54.5003 27.3817 54.7369 24.7418 54.7369V54.9164V55.0959C27.3997 55.0959 29.8115 54.8579 31.5635 54.4707C32.4381 54.2775 33.158 54.0449 33.6637 53.7807C33.9163 53.6487 34.1243 53.5043 34.2712 53.3457C34.419 53.1861 34.5139 53.0017 34.5139 52.7965H34.3344ZM24.7418 54.9164V54.7369C22.1019 54.7369 19.7174 54.5003 17.9975 54.1203C17.1362 53.9299 16.4513 53.7056 15.9862 53.4626C15.7534 53.341 15.5844 53.2191 15.4758 53.1018C15.368 52.9854 15.3287 52.884 15.3287 52.7965H15.1492H14.9697C14.9697 53.0017 15.0646 53.1861 15.2124 53.3457C15.3593 53.5043 15.5673 53.6487 15.8199 53.7807C16.3256 54.0449 17.0455 54.2775 17.9201 54.4707C19.6721 54.8579 22.0839 55.0959 24.7418 55.0959V54.9164ZM15.1492 52.7965H15.3287C15.3287 52.7422 15.3544 52.6749 15.4372 52.5944C15.5207 52.5131 15.6504 52.431 15.8246 52.3539C16.1722 52.2003 16.6591 52.0832 17.1945 52.0208L17.1737 51.8425L17.153 51.6643C16.5966 51.7291 16.0713 51.8524 15.6795 52.0257C15.4841 52.1121 15.3123 52.215 15.1869 52.3371C15.0606 52.46 14.9697 52.6143 14.9697 52.7965H15.1492ZM32.4477 51.8425C32.4034 52.0165 32.4034 52.0165 32.4033 52.0165C32.4034 52.0165 32.4034 52.0165 32.4034 52.0165C32.4034 52.0165 32.4035 52.0165 32.4035 52.0165C32.4037 52.0166 32.404 52.0166 32.4044 52.0167C32.4052 52.0169 32.4064 52.0173 32.4081 52.0177C32.4115 52.0186 32.4165 52.0199 32.4232 52.0216C32.4365 52.0251 32.4563 52.0304 32.4815 52.0373C32.532 52.0511 32.6045 52.0713 32.6914 52.0971C32.8658 52.1489 33.097 52.2223 33.3273 52.3099C33.5594 52.3981 33.7821 52.4976 33.9438 52.5996C34.025 52.6509 34.083 52.6979 34.1188 52.7385C34.1556 52.7802 34.1549 52.7986 34.1549 52.7965H34.3344H34.5139C34.5139 52.6761 34.4542 52.576 34.3879 52.5009C34.3205 52.4246 34.2311 52.3565 34.1354 52.2961C33.9434 52.1749 33.6944 52.0655 33.4548 51.9744C33.2134 51.8825 32.9729 51.8062 32.7935 51.753C32.7036 51.7263 32.6287 51.7054 32.576 51.691C32.5496 51.6838 32.5289 51.6783 32.5146 51.6745C32.5074 51.6726 32.5019 51.6712 32.4981 51.6702C32.4962 51.6697 32.4947 51.6693 32.4937 51.6691C32.4932 51.6689 32.4928 51.6688 32.4925 51.6688C32.4924 51.6687 32.4923 51.6687 32.4922 51.6687C32.4921 51.6687 32.4921 51.6687 32.4921 51.6687C32.492 51.6686 32.492 51.6686 32.4477 51.8425ZM17.1737 51.8425V52.022H32.4477V51.8425V51.6631H17.1737V51.8425ZM41.5291 31.8369C41.3497 31.8384 41.3497 31.8385 41.3497 31.8386C41.3497 31.8387 41.3497 31.8389 41.3497 31.8392C41.3497 31.8397 41.3497 31.8406 41.3497 31.8418C41.3497 31.8443 41.3497 31.848 41.3497 31.8531C41.3497 31.8631 41.3497 31.8783 41.3497 31.8984C41.3495 31.9386 41.349 31.9987 41.3476 32.0773C41.3449 32.2344 41.3387 32.4655 41.3249 32.76C41.2974 33.3491 41.2394 34.1914 41.1176 35.2026C40.8741 37.226 40.376 39.9205 39.359 42.6124C38.3417 45.3049 36.8087 47.9855 34.5009 49.9921C32.1965 51.9956 29.1105 53.3352 24.9674 53.3352L24.9674 53.5147L24.9674 53.6941C29.1958 53.6941 32.3657 52.3241 34.7364 50.263C37.1035 48.2049 38.6645 45.4662 39.6948 42.7392C40.7253 40.0117 41.2283 37.2868 41.474 35.2455C41.5969 34.2244 41.6556 33.3732 41.6835 32.7768C41.6975 32.4785 41.7037 32.2439 41.7065 32.0835C41.7079 32.0033 41.7084 31.9416 41.7086 31.8999C41.7087 31.879 41.7087 31.863 41.7087 31.8523C41.7087 31.8469 41.7086 31.8427 41.7086 31.8399C41.7086 31.8385 41.7086 31.8375 41.7086 31.8367C41.7086 31.8363 41.7086 31.836 41.7086 31.8358C41.7086 31.8356 41.7086 31.8354 41.5291 31.8369ZM24.9674 53.5147L24.9674 53.3352C20.8201 53.3352 17.6936 52.1068 15.3352 50.2408C12.9742 48.3726 11.3731 45.8573 10.2938 43.2703C9.21452 40.6834 8.66021 38.032 8.38909 35.9019C8.1176 33.7689 8.13145 32.1703 8.18197 31.6919L8.00349 31.6731L7.82501 31.6542C7.77054 32.1699 7.75953 33.7985 8.03302 35.9472C8.30687 38.0988 8.86737 40.7835 9.9625 43.4085C11.0576 46.0334 12.6903 48.6057 15.1125 50.5222C17.5374 52.4409 20.7433 53.6941 24.9674 53.6941L24.9674 53.5147ZM8.00349 31.6731L7.95401 31.8456C11.1478 32.7615 15.4004 33.4213 18.8479 33.8519C20.5731 34.0674 22.0992 34.2258 23.194 34.3304C23.7415 34.3827 24.1812 34.4215 24.4841 34.4472C24.6356 34.4601 24.7529 34.4697 24.8324 34.4761C24.8721 34.4793 24.9024 34.4817 24.9228 34.4833C24.933 34.4841 24.9407 34.4847 24.9459 34.4851C24.9485 34.4853 24.9504 34.4855 24.9517 34.4856C24.9524 34.4856 24.9529 34.4856 24.9532 34.4857C24.9534 34.4857 24.9535 34.4857 24.9536 34.4857C24.9537 34.4857 24.9538 34.4857 24.9674 34.3068C24.9811 34.1278 24.9811 34.1278 24.981 34.1278C24.9809 34.1278 24.9808 34.1278 24.9807 34.1278C24.9804 34.1278 24.9799 34.1277 24.9793 34.1277C24.978 34.1276 24.9761 34.1274 24.9736 34.1272C24.9685 34.1268 24.9609 34.1262 24.9508 34.1255C24.9307 34.1239 24.9007 34.1215 24.8612 34.1183C24.7822 34.112 24.6655 34.1024 24.5145 34.0896C24.2127 34.0639 23.7742 34.0252 23.2281 33.9731C22.1359 33.8688 20.6134 33.7107 18.8924 33.4957C15.4478 33.0655 11.2184 32.4084 8.05297 31.5005L8.00349 31.6731ZM7.95277 31.8369V32.0164H41.5291V31.8369V31.6575H7.95277V31.8369ZM24.9674 34.3068L24.9939 34.4843L41.5556 32.0144L41.5291 31.8369L41.5027 31.6594L24.941 34.1292L24.9674 34.3068Z" fill="#FAC29E"/>
<g id="Frame 101">
<g id="Vector">
<mask id="path-3-inside-1_462_3193" fill="white">
<path d="M41.5291 31.6674C41.5291 33.3737 34.0128 34.757 24.7409 34.757C15.4691 34.757 7.95277 33.3737 7.95277 31.6674C7.95277 29.961 15.4691 28.5777 24.7409 28.5777C34.0128 28.5777 41.5291 29.961 41.5291 31.6674Z"/>
<path d="M24.7418 54.9164C30.0397 54.9164 34.3344 53.9673 34.3344 52.7965C34.3344 52.3234 32.4477 51.8425 32.4477 51.8425H17.1737C16.082 51.9697 15.1492 52.3234 15.1492 52.7965C15.1492 53.9673 19.444 54.9164 24.7418 54.9164Z"/>
</mask>
<path d="M41.5291 31.6674C41.5291 33.3737 34.0128 34.757 24.7409 34.757C15.4691 34.757 7.95277 33.3737 7.95277 31.6674C7.95277 29.961 15.4691 28.5777 24.7409 28.5777C34.0128 28.5777 41.5291 29.961 41.5291 31.6674Z" fill="#FBF8F1"/>
<path d="M24.7418 54.9164C30.0397 54.9164 34.3344 53.9673 34.3344 52.7965C34.3344 52.3234 32.4477 51.8425 32.4477 51.8425H17.1737C16.082 51.9697 15.1492 52.3234 15.1492 52.7965C15.1492 53.9673 19.444 54.9164 24.7418 54.9164Z" fill="#FBF8F1"/>
<path d="M17.1737 51.8425V50.2722H17.0826L16.992 50.2828L17.1737 51.8425ZM32.4477 51.8425L32.8355 50.3209L32.6446 50.2722H32.4477V51.8425ZM41.5291 31.6674H39.9588C39.9588 31.2591 40.1891 31.0765 40.138 31.1225C40.0918 31.164 39.9336 31.2776 39.5833 31.4301C38.8943 31.7299 37.8 32.0368 36.3278 32.3077C33.409 32.8449 29.3116 33.1867 24.7409 33.1867V34.757V36.3273C29.4422 36.3273 33.7389 35.9775 36.8962 35.3965C38.462 35.1083 39.8263 34.7494 40.8364 34.3099C41.3355 34.0927 41.837 33.8184 42.2381 33.4576C42.6342 33.1014 43.0994 32.5022 43.0994 31.6674H41.5291ZM24.7409 34.757V33.1867C20.1703 33.1867 16.0729 32.8449 13.1541 32.3077C11.6819 32.0368 10.5876 31.7299 9.8986 31.4301C9.54827 31.2776 9.39008 31.164 9.34393 31.1225C9.29278 31.0765 9.52309 31.2591 9.52309 31.6674H7.95277H6.38246C6.38246 32.5022 6.84765 33.1014 7.24377 33.4576C7.64489 33.8184 8.14635 34.0927 8.64554 34.3099C9.65555 34.7494 11.0199 35.1083 12.5857 35.3965C15.743 35.9775 20.0397 36.3273 24.7409 36.3273V34.757ZM7.95277 31.6674H9.52309C9.52309 32.0756 9.29278 32.2583 9.34393 32.2123C9.39008 32.1708 9.54827 32.0571 9.8986 31.9046C10.5876 31.6048 11.6819 31.298 13.1541 31.027C16.0729 30.4899 20.1703 30.148 24.7409 30.148V28.5777V27.0074C20.0397 27.0074 15.743 27.3572 12.5857 27.9383C11.0199 28.2264 9.65555 28.5853 8.64554 29.0248C8.14635 29.242 7.64489 29.5164 7.24377 29.8771C6.84765 30.2334 6.38246 30.8325 6.38246 31.6674H7.95277ZM24.7409 28.5777V30.148C29.3116 30.148 33.409 30.4899 36.3278 31.027C37.8 31.298 38.8943 31.6048 39.5833 31.9046C39.9336 32.0571 40.0918 32.1708 40.138 32.2123C40.1891 32.2583 39.9588 32.0756 39.9588 31.6674H41.5291H43.0994C43.0994 30.8325 42.6342 30.2334 42.2381 29.8771C41.837 29.5164 41.3355 29.242 40.8364 29.0248C39.8263 28.5853 38.462 28.2264 36.8962 27.9383C33.7389 27.3572 29.4422 27.0074 24.7409 27.0074V28.5777ZM34.3344 52.7965H32.7641C32.7641 52.4279 32.9402 52.2078 32.9873 52.1568C33.0269 52.1141 33.0092 52.1485 32.8534 52.2299C32.5452 52.3909 31.9962 52.5831 31.1859 52.7622C29.591 53.1147 27.3118 53.3461 24.7418 53.3461V54.9164V56.4867C27.4696 56.4867 29.9868 56.2436 31.8637 55.8288C32.7893 55.6243 33.6451 55.3597 34.3078 55.0135C34.6373 54.8413 34.9966 54.6094 35.2917 54.2906C35.5945 53.9637 35.9047 53.4578 35.9047 52.7965H34.3344ZM24.7418 54.9164V53.3461C22.1718 53.3461 19.8926 53.1147 18.2977 52.7622C17.4874 52.5831 16.9384 52.3909 16.6302 52.2299C16.4744 52.1485 16.4568 52.1141 16.4963 52.1568C16.5435 52.2078 16.7195 52.4279 16.7195 52.7965H15.1492H13.5789C13.5789 53.4578 13.8892 53.9637 14.1919 54.2906C14.487 54.6094 14.8463 54.8413 15.1759 55.0135C15.8385 55.3597 16.6943 55.6243 17.62 55.8288C19.4969 56.2436 22.014 56.4867 24.7418 56.4867V54.9164ZM15.1492 52.7965H16.7195C16.7195 53.2378 16.4931 53.5075 16.407 53.5913C16.3281 53.668 16.2951 53.6667 16.3871 53.626C16.5631 53.5482 16.9011 53.4553 17.3554 53.4023L17.1737 51.8425L16.992 50.2828C16.3547 50.357 15.6803 50.5045 15.117 50.7536C14.8394 50.8764 14.5049 51.0601 14.217 51.3402C13.9219 51.6273 13.5789 52.1187 13.5789 52.7965H15.1492ZM32.4477 51.8425C32.0599 53.3642 32.0597 53.3642 32.0595 53.3641C32.0595 53.3641 32.0593 53.3641 32.0593 53.3641C32.0591 53.364 32.0589 53.364 32.0588 53.364C32.0586 53.3639 32.0584 53.3639 32.0584 53.3638C32.0583 53.3638 32.0587 53.3639 32.0595 53.3641C32.0611 53.3645 32.0644 53.3654 32.0692 53.3667C32.0788 53.3692 32.0945 53.3734 32.1155 53.3791C32.1577 53.3906 32.2201 53.4081 32.2959 53.4305C32.4506 53.4764 32.6463 53.5389 32.8329 53.6099C33.0359 53.6871 33.1571 53.7478 33.2016 53.7759C33.2265 53.7916 33.1627 53.757 33.0762 53.6591C32.9987 53.5713 32.7641 53.2735 32.7641 52.7965H34.3344H35.9047C35.9047 52.2012 35.6111 51.7849 35.4304 51.5803C35.2408 51.3655 35.0296 51.2157 34.8776 51.1198C34.5684 50.9247 34.2178 50.7765 33.9492 50.6743C33.6641 50.5659 33.3881 50.4786 33.1891 50.4196C33.088 50.3896 33.003 50.3658 32.942 50.3492C32.9114 50.3408 32.8866 50.3342 32.8686 50.3295C32.8596 50.3271 32.8522 50.3252 32.8467 50.3237C32.8439 50.323 32.8416 50.3224 32.8397 50.3219C32.8388 50.3217 32.838 50.3215 32.8372 50.3213C32.8369 50.3212 32.8366 50.3211 32.8363 50.3211C32.8361 50.321 32.8359 50.321 32.8359 50.321C32.8357 50.3209 32.8355 50.3209 32.4477 51.8425ZM17.1737 51.8425V53.4129H32.4477V51.8425V50.2722H17.1737V51.8425Z" fill="#FA8969" mask="url(#path-3-inside-1_462_3193)"/>
</g>
<path id="Line 2" d="M24.9671 53.5145C41.71 53.5145 41.5093 31.6169 41.5093 31.6169C41.5093 31.6169 34.0702 34.2566 24.9671 34.3066C18.263 34.3434 14.3624 33.4967 8.00314 31.6729C7.79316 33.6611 8.22418 53.5145 24.9671 53.5145Z" fill="url(#paint0_linear_462_3193)"/>
<g id="Vector 4">
<path d="M15.5893 42.1163C13.233 42.1163 13.5322 36.2569 11.8224 35.0671L17.6417 35.967C17.6417 37.1268 17.9457 42.1163 15.5893 42.1163Z" fill="#FBF8F1"/>
<path d="M11.8224 35.0671C13.5322 36.2569 13.233 42.1163 15.5893 42.1163C17.9457 42.1163 17.6417 37.1268 17.6417 35.967L11.8224 35.0671ZM11.8224 35.0671C11.8224 35.0671 10.7125 34.7071 8.94269 33.9072" stroke="#FBF8F1" stroke-width="0.439952" stroke-linecap="round"/>
</g>
<path id="Ellipse 5" d="M18.0322 47.3734C18.0322 47.8814 17.5889 48.2352 17.0894 48.2352C16.59 48.2352 16.2524 47.5619 16.2524 47.0539C16.2524 46.5459 16.3687 46.0954 16.8682 46.0954C17.3676 46.0954 18.0322 46.8655 18.0322 47.3734Z" fill="#FBF8F1"/>
<path id="Vector_2" d="M9.06233 34.8867C9.06233 41.5411 12.8896 47.3823 17.0529 50.4748M40.1889 35.2268C40.1889 41.8812 36.983 47.4325 32.8197 50.525M11.1021 36.0066C11.962 36.5165 12.802 43.4558 15.7216 43.4558C18.6413 43.4558 18.6013 38.3463 18.6013 36.0066C27.1004 36.5865 35.4195 36.0066 40.329 34.2568" stroke="#FBF8F1" stroke-width="0.439952" stroke-linecap="round"/>
<path id="Vector_3" d="M16.0823 51.5749C18.332 52.6348 21.9217 53.4047 24.3514 53.4047C27.0611 53.4047 30.3007 53.0847 33.3504 51.6449M9.29321 32.477C15.8417 35.5609 35.6368 34.9738 40.4698 32.6064" stroke="#FBF8F1" stroke-width="1.29986" stroke-linecap="round"/>
</g>
<g id="Vector_4">
<path d="M22.4204 20.048C21.5545 21.2256 20.86 23.1563 22.1804 26.7373C22.1804 26.7373 19.1302 23.7863 19.3702 20.9066C19.416 19.1099 21.7333 15.8223 22.4204 13.5774C23.4959 10.0629 23.0378 8.41794 23.2698 8.41794C23.7075 8.41794 28.7722 14.8756 29.4891 20.048C30.0099 23.8053 26.3294 26.9159 26.3294 26.9159C27.0494 25.0061 28.0382 20.5976 26.8294 18.3669C26.4014 17.5769 25.3295 16.3171 25.0496 16.3171C24.4796 17.077 23.3698 18.7568 22.4204 20.048Z" fill="#FAC29E"/>
<path d="M24.2477 30.994C24.2477 30.994 23.6196 26.6284 24.3341 24.7204M22.1804 26.7373C20.86 23.1563 21.5545 21.2256 22.4204 20.048C23.3698 18.7568 24.4796 17.077 25.0496 16.3171C25.3295 16.3171 26.4014 17.5769 26.8294 18.3669C28.0382 20.5976 27.0494 25.0061 26.3294 26.9159C26.3294 26.9159 30.0099 23.8053 29.4891 20.048C28.7722 14.8756 23.7075 8.41794 23.2698 8.41794C23.0378 8.41794 23.4959 10.0629 22.4204 13.5774C21.7333 15.8223 19.416 19.1099 19.3702 20.9066C19.1302 23.7863 22.1804 26.7373 22.1804 26.7373Z" stroke="#FAC29E" stroke-width="0.179472"/>
</g>
<g id="Frame 102">
<path id="Line 3" d="M24.2473 30.994C24.2473 30.994 23.6192 26.6284 24.3337 24.7204" stroke="#DE664F" stroke-width="0.499946"/>
<path id="Line 4" d="M22.4197 20.0479C21.5538 21.2255 20.8593 23.1562 22.1797 26.7372C22.1797 26.7372 19.1295 23.7862 19.3695 20.9065C19.4153 19.1098 21.7326 15.8222 22.4197 13.5773C23.4953 10.0628 23.0371 8.41783 23.2691 8.41783C23.7068 8.41783 28.7716 14.8755 29.4884 20.0479C30.0092 23.8052 26.3288 26.9158 26.3288 26.9158C27.0487 25.006 28.0375 20.5975 26.8287 18.3667C26.4007 17.5768 25.3289 16.317 25.0489 16.317C24.479 17.0769 23.3691 18.7567 22.4197 20.0479Z" fill="url(#paint1_linear_462_3193)" stroke="#DE664F" stroke-width="0.0199978"/>
</g>
</g>
<g id="LogoText">
<path id="Velas Artesanais" d="M46.0478 9.325L47.5804 9.02205L47.6873 9.36064C47.4022 9.71706 47.123 10.0913 46.8497 10.4833C46.5765 10.8754 46.327 11.2556 46.1013 11.6239C45.8756 11.9803 45.6855 12.2951 45.531 12.5683C45.3766 12.8297 45.2697 13.0079 45.2103 13.103C44.5687 14.291 43.9331 15.58 43.3035 16.97C42.6857 18.36 42.1214 19.7916 41.6105 21.2648L40.3987 21.7281L40.2205 21.6034L37.6722 13.0139C37.5415 12.598 37.4108 12.1882 37.2801 11.7842C37.1494 11.3803 36.995 10.9823 36.8168 10.5903C36.6742 10.2933 36.4782 10.1032 36.2287 10.02C35.9911 9.92496 35.6228 9.8418 35.1238 9.77052L35.106 9.28936L35.2307 9.18244L38.3493 9.00423C39.0503 12.4258 40.0304 15.7523 41.2897 18.9838C41.3135 19.0194 41.3372 19.0491 41.361 19.0729C41.3967 19.0847 41.4204 19.0966 41.4323 19.1085C41.4917 19.0847 41.6224 18.8531 41.8243 18.4135C42.0382 17.9739 42.3293 17.3561 42.6976 16.5602L44.8182 11.6773C44.9845 11.2734 45.1746 10.8754 45.3885 10.4833C45.6023 10.0913 45.8221 9.70518 46.0478 9.325ZM54.0855 15.384C54.0855 15.4909 54.0439 15.5681 53.9607 15.6157C53.8894 15.6632 53.8063 15.7107 53.7112 15.7582L48.6858 17.9323C48.7215 18.3006 48.8165 18.6808 48.971 19.0729C49.1373 19.4649 49.3808 19.7916 49.7016 20.053C50.0342 20.3144 50.4619 20.445 50.9847 20.445C51.4718 20.445 51.947 20.3203 52.4103 20.0708C52.8855 19.8213 53.3251 19.5421 53.729 19.2332L53.9251 19.2689L54.1567 19.5897C53.7884 19.9342 53.3845 20.2668 52.9449 20.5876C52.5172 20.8965 52.0599 21.1519 51.5728 21.3539C51.0975 21.5559 50.6045 21.6568 50.0936 21.6568C49.4996 21.6568 49.0066 21.5321 48.6145 21.2826C48.2344 21.0331 47.9374 20.7064 47.7235 20.3025C47.5097 19.8867 47.3552 19.4293 47.2602 18.9303C47.177 18.4194 47.1354 17.9145 47.1354 17.4155C47.1354 16.8928 47.2008 16.382 47.3315 15.883C47.4621 15.384 47.6998 14.9325 48.0443 14.5286C48.4839 14.0178 49.0066 13.6257 49.6125 13.3525C50.2303 13.0673 50.8778 12.9248 51.5549 12.9248C52.3272 12.9248 52.939 13.1624 53.3905 13.6376C53.8538 14.1128 54.0855 14.6949 54.0855 15.384ZM50.9312 13.6376C50.6342 13.6376 50.355 13.7029 50.0936 13.8336C49.8442 13.9643 49.6244 14.1484 49.4343 14.386C49.0898 14.7543 48.864 15.1404 48.7571 15.5444C48.6621 15.9483 48.6145 16.3701 48.6145 16.8096C48.6145 16.8572 48.6145 16.9106 48.6145 16.97C48.6264 17.0176 48.6383 17.071 48.6502 17.1304L48.7215 17.2017L52.3212 15.7761C52.3806 15.7523 52.4341 15.7048 52.4816 15.6335C52.5291 15.5622 52.5529 15.4553 52.5529 15.3127C52.5529 15.0632 52.4875 14.8078 52.3569 14.5464C52.2262 14.2851 52.0361 14.0712 51.7866 13.9049C51.549 13.7267 51.2639 13.6376 50.9312 13.6376ZM58.2361 19.4471H58.4321L58.6282 19.6609C58.4262 19.9698 58.1886 20.2787 57.9153 20.5876C57.6421 20.8965 57.3391 21.1519 57.0065 21.3539C56.6738 21.544 56.3115 21.639 55.9194 21.639C55.6224 21.639 55.3611 21.5737 55.1353 21.443C54.9215 21.3004 54.7552 21.0509 54.6364 20.6945C54.5176 20.3262 54.4582 19.8035 54.4582 19.1263L54.5829 12.3901C54.5829 12.0931 54.577 11.7783 54.5651 11.4457C54.5651 11.1011 54.5413 10.8219 54.4938 10.6081C54.4582 10.418 54.3512 10.2933 54.173 10.2339C53.9948 10.1626 53.7929 10.121 53.5671 10.1091C53.3414 10.0972 53.1335 10.0853 52.9434 10.0735V9.66359L53.0503 9.57449L55.9907 9.21808L56.0976 9.34282C56.062 10.5903 56.0085 11.8377 55.9373 13.0851C55.8779 14.3326 55.8482 15.58 55.8482 16.8275C55.8482 17.4096 55.8422 17.962 55.8303 18.4848C55.8303 19.0075 55.8838 19.4352 55.9907 19.7679C56.1095 20.0886 56.3471 20.2609 56.7035 20.2847C57.0006 20.2847 57.2738 20.1956 57.5233 20.0173C57.7728 19.8273 58.0104 19.6372 58.2361 19.4471ZM61.9745 13.1386C62.2597 13.1386 62.5745 13.1921 62.919 13.299C63.2754 13.4059 63.5962 13.5604 63.8813 13.7623L64.8258 13.2099L64.9149 13.299C64.8437 14.594 64.808 15.8889 64.808 17.1839C64.808 17.4571 64.7961 17.7838 64.7724 18.164C64.7605 18.5442 64.7664 18.9125 64.7902 19.2689C64.814 19.6253 64.8793 19.9223 64.9862 20.1599C65.0931 20.3975 65.2654 20.5163 65.503 20.5163C65.6337 20.5163 65.8119 20.4807 66.0376 20.4094C66.2634 20.3381 66.4713 20.2668 66.6614 20.1956L66.7861 20.6232C66.5485 20.7658 66.2931 20.9203 66.0198 21.0866C65.7466 21.241 65.4793 21.3717 65.2179 21.4786C64.9565 21.5974 64.7308 21.6568 64.5407 21.6568C64.2081 21.6568 63.9704 21.5559 63.8279 21.3539C63.6853 21.1519 63.5843 20.9024 63.5249 20.6054L63.2576 20.5341C62.818 20.8193 62.3547 21.0806 61.8676 21.3182C61.3805 21.544 60.8756 21.6568 60.3529 21.6568C59.8539 21.6568 59.4381 21.5499 59.1054 21.3361C58.7728 21.1222 58.5055 20.843 58.3035 20.4985C58.1015 20.154 57.953 19.7797 57.858 19.3758C57.7748 18.96 57.7332 18.5501 57.7332 18.1462C57.7332 17.5165 57.8105 16.9047 57.9649 16.3107C58.1312 15.7166 58.3807 15.182 58.7134 14.7068C59.0579 14.2197 59.4975 13.8395 60.0321 13.5663C60.5667 13.2812 61.2142 13.1386 61.9745 13.1386ZM61.6003 20.4807C61.9448 20.4807 62.2775 20.3975 62.5983 20.2312C62.9309 20.0649 63.2279 19.8807 63.4893 19.6788V15.58C63.4893 15.3424 63.4774 15.1167 63.4536 14.9028C63.4299 14.689 63.3467 14.5048 63.2042 14.3504C63.0497 14.1841 62.8656 14.0475 62.6517 13.9405C62.4379 13.8217 62.2181 13.7623 61.9924 13.7623C61.3389 13.7623 60.7746 13.9881 60.2994 14.4395C60.0974 14.6296 59.8895 14.9801 59.6757 15.4909C59.4737 16.0018 59.3609 16.7087 59.3371 17.6116C59.3252 17.9799 59.3549 18.3541 59.4262 18.7343C59.4975 19.1026 59.6341 19.4411 59.8361 19.75C60.0262 20.047 60.2816 20.2431 60.6024 20.3381C60.935 20.4332 61.2677 20.4807 61.6003 20.4807ZM71.4524 14.6177L70.4723 15.2771L70.2585 15.1523C70.2347 14.7603 70.1337 14.4336 69.9555 14.1722C69.7892 13.8989 69.5041 13.7623 69.1001 13.7623C68.6843 13.7623 68.3338 13.8989 68.0487 14.1722C67.7755 14.4454 67.6388 14.79 67.6388 15.2058C67.6388 15.5622 67.7992 15.8711 68.12 16.1325C68.4526 16.382 68.9457 16.6433 69.5991 16.9166C70.2882 17.2136 70.799 17.5284 71.1317 17.8611C71.4762 18.1937 71.6485 18.5679 71.6485 18.9838C71.6485 19.5897 71.4762 20.1005 71.1317 20.5163C70.799 20.9203 70.3713 21.2291 69.8486 21.443C69.3377 21.645 68.8209 21.7459 68.2982 21.7459C67.7636 21.7459 67.2646 21.639 66.8013 21.4252C66.3498 21.2113 65.9756 20.8252 65.6786 20.2668L66.5518 19.0016L66.8013 19.0194C66.8369 19.5659 67.0448 20.047 67.425 20.4629C67.8052 20.8668 68.2744 21.0688 68.8328 21.0688C69.213 21.0688 69.5575 20.9381 69.8664 20.6767C70.1872 20.4035 70.3476 20.0827 70.3476 19.7144C70.3476 19.4055 70.2585 19.1441 70.0803 18.9303C69.902 18.7164 69.6763 18.5323 69.4031 18.3779C69.1417 18.2234 68.8685 18.0868 68.5833 17.968C68.215 17.8135 67.8586 17.6353 67.5141 17.4334C67.1696 17.2314 66.8904 16.9878 66.6765 16.7027C66.4627 16.4176 66.3558 16.079 66.3558 15.6869C66.3558 15.1523 66.5102 14.6949 66.8191 14.3148C67.128 13.9346 67.52 13.6435 67.9952 13.4416C68.4705 13.2396 68.9516 13.1386 69.4387 13.1386C69.7476 13.1386 70.0506 13.1861 70.3476 13.2812C70.6565 13.3762 70.9119 13.5307 71.1138 13.7445C71.3277 13.9584 71.4406 14.2494 71.4524 14.6177ZM85.3866 21.6212C85.0896 21.6212 84.8698 21.4668 84.7272 21.1579C84.5847 20.8371 84.4599 20.4807 84.353 20.0886L83.3907 16.7384C83.3432 16.6314 83.2778 16.578 83.1947 16.578H79.185C79.1138 16.578 79.0544 16.6255 79.0068 16.7205L76.9218 21.14L75.3002 21.4786L75.2467 21.3004C76.304 19.5184 77.3376 17.7185 78.3475 15.9008C79.3692 14.0831 80.3493 12.2476 81.2879 10.3942C81.2997 10.3586 81.3057 10.317 81.3057 10.2695C81.3057 10.2457 81.2879 10.2101 81.2522 10.1626C81.2285 10.115 81.175 10.0853 81.0918 10.0735L79.488 9.80616V9.325H82.9452C83.0402 9.8121 83.1768 10.4299 83.3551 11.1783C83.5451 11.9149 83.753 12.6931 83.9788 13.5128C84.2045 14.3207 84.4124 15.081 84.6025 15.7939C84.8045 16.5186 85.0242 17.273 85.2619 18.0571C85.5113 18.8412 85.7965 19.5006 86.1172 20.0352C86.236 20.2253 86.3964 20.3619 86.5984 20.445C86.8004 20.5282 87.0202 20.5698 87.2578 20.5698C87.3884 20.5698 87.5191 20.5638 87.6498 20.552C87.7805 20.5401 87.9052 20.5282 88.024 20.5163L88.0419 20.9797L86.1885 21.5143C85.9272 21.5856 85.6598 21.6212 85.3866 21.6212ZM81.7156 11.1783C81.6443 11.1783 81.6086 11.2021 81.6086 11.2496L79.5414 15.5978C79.5296 15.6097 79.5236 15.6394 79.5236 15.6869C79.5236 15.7226 79.5236 15.7463 79.5236 15.7582C79.5236 15.8414 79.5652 15.883 79.6484 15.883H82.9986C83.0818 15.883 83.1234 15.8414 83.1234 15.7582C83.1234 15.7582 83.1174 15.7345 83.1056 15.6869C83.0937 15.6394 83.0877 15.6097 83.0877 15.5978L81.8403 11.2496C81.8165 11.2021 81.775 11.1783 81.7156 11.1783ZM93.8635 14.5286L92.9012 15.4018L92.6873 15.3127C92.6398 15.0632 92.5448 14.8316 92.4022 14.6177C92.2596 14.392 92.0398 14.2791 91.7428 14.2791C91.3745 14.2791 91.0775 14.4039 90.8518 14.6534C90.6261 14.9028 90.4657 15.1464 90.3707 15.384C90.2875 15.5741 90.24 15.8473 90.2281 16.2037C90.2162 16.5602 90.2162 16.9403 90.2281 17.3443C90.24 17.7363 90.2459 18.0927 90.2459 18.4135C90.2459 19.3045 90.2637 20.2074 90.2994 21.1222L89.0519 21.4965L88.7846 21.3361C88.844 20.7064 88.8915 20.0233 88.9272 19.2867C88.9747 18.5501 88.9985 17.8254 88.9985 17.1126C88.9985 16.6493 88.9925 16.1859 88.9806 15.7226C88.9688 15.2593 88.9094 14.8731 88.8024 14.5643C88.6955 14.2554 88.5054 14.1009 88.2322 14.1009C88.0302 14.1009 87.8045 14.1603 87.555 14.2791C87.3055 14.3979 87.0679 14.5227 86.8422 14.6534L86.6283 14.3504C86.8659 14.1603 87.1214 13.9643 87.3946 13.7623C87.6797 13.5604 87.9649 13.3881 88.25 13.2455C88.5351 13.0911 88.7965 13.0139 89.0341 13.0139C89.438 13.0139 89.741 13.1327 89.943 13.3703C90.1449 13.6079 90.2697 13.9168 90.3172 14.2969L90.4954 14.3682C90.6736 14.2019 90.8696 14.0237 91.0835 13.8336C91.3092 13.6316 91.5409 13.4653 91.7785 13.3346C92.0161 13.1921 92.2418 13.1208 92.4557 13.1208C93.2992 13.1208 93.7684 13.5901 93.8635 14.5286ZM94.7726 11.0714L96.2695 10.5546L96.3943 10.6437C96.3468 11.1546 96.3052 11.6476 96.2695 12.1228C96.2339 12.5862 96.2101 13.0792 96.1983 13.6019L96.3052 13.691H98.5862L98.6753 13.7623L98.5328 14.2257L98.4258 14.3148H96.3052L96.1983 14.4217V17.7898C96.1983 18.2056 96.222 18.6214 96.2695 19.0372C96.3289 19.453 96.4477 19.7976 96.626 20.0708C96.816 20.3322 97.0952 20.4629 97.4635 20.4629C97.6892 20.4629 97.9506 20.3856 98.2476 20.2312C98.5446 20.0649 98.8238 19.8985 99.0852 19.7322L99.299 19.7679L99.4238 20.0352C99.0198 20.4153 98.5625 20.7718 98.0516 21.1044C97.5407 21.4371 97.0239 21.6034 96.5012 21.6034C96.2992 21.6034 96.0735 21.5618 95.824 21.4786C95.5864 21.4074 95.3845 21.2648 95.2181 21.0509C95.0993 20.8846 95.0102 20.7064 94.9508 20.5163C94.8914 20.3262 94.8498 20.0292 94.8261 19.6253C94.8142 19.2214 94.8083 18.6214 94.8083 17.8254V14.4395L94.7013 14.3148H92.7054L92.6163 14.2257L92.7411 13.798L92.848 13.691H94.7013L94.8083 13.5841C94.8083 13.1327 94.8083 12.6574 94.8083 12.1585C94.8083 11.6595 94.7964 11.2971 94.7726 11.0714ZM105.853 15.384C105.853 15.4909 105.811 15.5681 105.728 15.6157C105.657 15.6632 105.574 15.7107 105.479 15.7582L100.453 17.9323C100.489 18.3006 100.584 18.6808 100.738 19.0729C100.905 19.4649 101.148 19.7916 101.469 20.053C101.802 20.3144 102.229 20.445 102.752 20.445C103.239 20.445 103.714 20.3203 104.178 20.0708C104.653 19.8213 105.092 19.5421 105.496 19.2332L105.692 19.2689L105.924 19.5897C105.556 19.9342 105.152 20.2668 104.712 20.5876C104.285 20.8965 103.827 21.1519 103.34 21.3539C102.865 21.5559 102.372 21.6568 101.861 21.6568C101.267 21.6568 100.774 21.5321 100.382 21.2826C100.002 21.0331 99.7047 20.7064 99.4909 20.3025C99.277 19.8867 99.1226 19.4293 99.0276 18.9303C98.9444 18.4194 98.9028 17.9145 98.9028 17.4155C98.9028 16.8928 98.9682 16.382 99.0988 15.883C99.2295 15.384 99.4671 14.9325 99.8117 14.5286C100.251 14.0178 100.774 13.6257 101.38 13.3525C101.998 13.0673 102.645 12.9248 103.322 12.9248C104.095 12.9248 104.706 13.1624 105.158 13.6376C105.621 14.1128 105.853 14.6949 105.853 15.384ZM102.699 13.6376C102.402 13.6376 102.122 13.7029 101.861 13.8336C101.612 13.9643 101.392 14.1484 101.202 14.386C100.857 14.7543 100.631 15.1404 100.524 15.5444C100.429 15.9483 100.382 16.3701 100.382 16.8096C100.382 16.8572 100.382 16.9106 100.382 16.97C100.394 17.0176 100.406 17.071 100.418 17.1304L100.489 17.2017L104.089 15.7761C104.148 15.7523 104.201 15.7048 104.249 15.6335C104.297 15.5622 104.32 15.4553 104.32 15.3127C104.32 15.0632 104.255 14.8078 104.124 14.5464C103.994 14.2851 103.803 14.0712 103.554 13.9049C103.316 13.7267 103.031 13.6376 102.699 13.6376ZM110.948 14.6177L109.968 15.2771L109.754 15.1523C109.73 14.7603 109.629 14.4336 109.451 14.1722C109.285 13.8989 109 13.7623 108.596 13.7623C108.18 13.7623 107.829 13.8989 107.544 14.1722C107.271 14.4454 107.134 14.79 107.134 15.2058C107.134 15.5622 107.295 15.8711 107.616 16.1325C107.948 16.382 108.441 16.6433 109.095 16.9166C109.784 17.2136 110.295 17.5284 110.627 17.8611C110.972 18.1937 111.144 18.5679 111.144 18.9838C111.144 19.5897 110.972 20.1005 110.627 20.5163C110.295 20.9203 109.867 21.2291 109.344 21.443C108.833 21.645 108.316 21.7459 107.794 21.7459C107.259 21.7459 106.76 21.639 106.297 21.4252C105.845 21.2113 105.471 20.8252 105.174 20.2668L106.047 19.0016L106.297 19.0194C106.332 19.5659 106.54 20.047 106.921 20.4629C107.301 20.8668 107.77 21.0688 108.328 21.0688C108.709 21.0688 109.053 20.9381 109.362 20.6767C109.683 20.4035 109.843 20.0827 109.843 19.7144C109.843 19.4055 109.754 19.1441 109.576 18.9303C109.398 18.7164 109.172 18.5323 108.899 18.3779C108.637 18.2234 108.364 18.0868 108.079 17.968C107.711 17.8135 107.354 17.6353 107.01 17.4334C106.665 17.2314 106.386 16.9878 106.172 16.7027C105.958 16.4176 105.851 16.079 105.851 15.6869C105.851 15.1523 106.006 14.6949 106.315 14.3148C106.624 13.9346 107.016 13.6435 107.491 13.4416C107.966 13.2396 108.447 13.1386 108.934 13.1386C109.243 13.1386 109.546 13.1861 109.843 13.2812C110.152 13.3762 110.407 13.5307 110.609 13.7445C110.823 13.9584 110.936 14.2494 110.948 14.6177ZM115.134 13.1386C115.419 13.1386 115.734 13.1921 116.079 13.299C116.435 13.4059 116.756 13.5604 117.041 13.7623L117.985 13.2099L118.075 13.299C118.003 14.594 117.968 15.8889 117.968 17.1839C117.968 17.4571 117.956 17.7838 117.932 18.164C117.92 18.5442 117.926 18.9125 117.95 19.2689C117.974 19.6253 118.039 19.9223 118.146 20.1599C118.253 20.3975 118.425 20.5163 118.663 20.5163C118.793 20.5163 118.972 20.4807 119.197 20.4094C119.423 20.3381 119.631 20.2668 119.821 20.1956L119.946 20.6232C119.708 20.7658 119.453 20.9203 119.179 21.0866C118.906 21.241 118.639 21.3717 118.377 21.4786C118.116 21.5974 117.89 21.6568 117.7 21.6568C117.368 21.6568 117.13 21.5559 116.987 21.3539C116.845 21.1519 116.744 20.9024 116.685 20.6054L116.417 20.5341C115.978 20.8193 115.514 21.0806 115.027 21.3182C114.54 21.544 114.035 21.6568 113.512 21.6568C113.014 21.6568 112.598 21.5499 112.265 21.3361C111.932 21.1222 111.665 20.843 111.463 20.4985C111.261 20.154 111.113 19.7797 111.018 19.3758C110.934 18.96 110.893 18.5501 110.893 18.1462C110.893 17.5165 110.97 16.9047 111.125 16.3107C111.291 15.7166 111.54 15.182 111.873 14.7068C112.218 14.2197 112.657 13.8395 113.192 13.5663C113.726 13.2812 114.374 13.1386 115.134 13.1386ZM114.76 20.4807C115.104 20.4807 115.437 20.3975 115.758 20.2312C116.091 20.0649 116.388 19.8807 116.649 19.6788V15.58C116.649 15.3424 116.637 15.1167 116.613 14.9028C116.589 14.689 116.506 14.5048 116.364 14.3504C116.209 14.1841 116.025 14.0475 115.811 13.9405C115.597 13.8217 115.378 13.7623 115.152 13.7623C114.499 13.7623 113.934 13.9881 113.459 14.4395C113.257 14.6296 113.049 14.9801 112.835 15.4909C112.633 16.0018 112.52 16.7087 112.497 17.6116C112.485 17.9799 112.515 18.3541 112.586 18.7343C112.657 19.1026 112.794 19.4411 112.996 19.75C113.186 20.047 113.441 20.2431 113.762 20.3381C114.095 20.4332 114.427 20.4807 114.76 20.4807ZM121.992 21.1222L120.745 21.5499L120.478 21.4252C120.49 21.1994 120.501 20.8668 120.513 20.4272C120.537 19.9876 120.555 19.5065 120.567 18.9838C120.591 18.4491 120.608 17.9323 120.62 17.4334C120.632 16.9225 120.638 16.4889 120.638 16.1325C120.638 15.5384 120.602 15.0513 120.531 14.6712C120.46 14.2791 120.276 14.0831 119.979 14.0831C119.789 14.0831 119.581 14.1484 119.355 14.2791C119.141 14.3979 118.904 14.5405 118.642 14.7068L118.339 14.3148C118.589 14.1366 118.856 13.9524 119.141 13.7623C119.426 13.5604 119.711 13.394 119.997 13.2633C120.282 13.1208 120.531 13.0495 120.745 13.0495C121.196 13.0495 121.511 13.1683 121.689 13.4059C121.868 13.6435 121.981 13.9287 122.028 14.2613L122.171 14.3682C122.67 14.0593 123.21 13.7683 123.792 13.495C124.386 13.2218 124.968 13.0851 125.539 13.0851C125.8 13.0851 126.05 13.1208 126.287 13.1921C126.537 13.2633 126.745 13.4 126.911 13.6019C127.03 13.7445 127.113 14.0059 127.16 14.386C127.208 14.7543 127.238 15.1702 127.249 15.6335C127.261 16.0849 127.267 16.5008 127.267 16.8809C127.267 17.772 127.267 18.4729 127.267 18.9838C127.279 19.4946 127.339 19.857 127.446 20.0708C127.564 20.2728 127.79 20.3738 128.123 20.3738C128.325 20.3738 128.556 20.2965 128.818 20.1421C129.079 19.9876 129.323 19.8273 129.548 19.6609H129.78L129.94 20.0352C129.536 20.4391 129.073 20.8074 128.55 21.14C128.04 21.4608 127.57 21.6212 127.143 21.6212C126.655 21.6212 126.317 21.4668 126.127 21.1579C125.949 20.849 125.859 20.4807 125.859 20.053L125.949 17.0057C125.949 16.1146 125.836 15.4137 125.61 14.9028C125.396 14.392 124.974 14.1366 124.345 14.1366C123.941 14.1366 123.537 14.2554 123.133 14.493C122.729 14.7187 122.367 14.9622 122.046 15.2236C122.022 15.8652 121.998 16.5542 121.975 17.2908C121.951 18.0274 121.939 18.7224 121.939 19.3758C121.939 19.6253 121.945 19.8926 121.957 20.1777C121.969 20.451 121.981 20.7658 121.992 21.1222ZM133.288 13.1386C133.573 13.1386 133.888 13.1921 134.233 13.299C134.589 13.4059 134.91 13.5604 135.195 13.7623L136.139 13.2099L136.229 13.299C136.157 14.594 136.122 15.8889 136.122 17.1839C136.122 17.4571 136.11 17.7838 136.086 18.164C136.074 18.5442 136.08 18.9125 136.104 19.2689C136.128 19.6253 136.193 19.9223 136.3 20.1599C136.407 20.3975 136.579 20.5163 136.817 20.5163C136.947 20.5163 137.126 20.4807 137.351 20.4094C137.577 20.3381 137.785 20.2668 137.975 20.1956L138.1 20.6232C137.862 20.7658 137.607 20.9203 137.333 21.0866C137.06 21.241 136.793 21.3717 136.532 21.4786C136.27 21.5974 136.044 21.6568 135.854 21.6568C135.522 21.6568 135.284 21.5559 135.142 21.3539C134.999 21.1519 134.898 20.9024 134.839 20.6054L134.571 20.5341C134.132 20.8193 133.668 21.0806 133.181 21.3182C132.694 21.544 132.189 21.6568 131.666 21.6568C131.168 21.6568 130.752 21.5499 130.419 21.3361C130.086 21.1222 129.819 20.843 129.617 20.4985C129.415 20.154 129.267 19.7797 129.172 19.3758C129.088 18.96 129.047 18.5501 129.047 18.1462C129.047 17.5165 129.124 16.9047 129.279 16.3107C129.445 15.7166 129.694 15.182 130.027 14.7068C130.372 14.2197 130.811 13.8395 131.346 13.5663C131.88 13.2812 132.528 13.1386 133.288 13.1386ZM132.914 20.4807C133.258 20.4807 133.591 20.3975 133.912 20.2312C134.245 20.0649 134.542 19.8807 134.803 19.6788V15.58C134.803 15.3424 134.791 15.1167 134.767 14.9028C134.744 14.689 134.66 14.5048 134.518 14.3504C134.363 14.1841 134.179 14.0475 133.965 13.9405C133.752 13.8217 133.532 13.7623 133.306 13.7623C132.653 13.7623 132.088 13.9881 131.613 14.4395C131.411 14.6296 131.203 14.9801 130.989 15.4909C130.787 16.0018 130.674 16.7087 130.651 17.6116C130.639 17.9799 130.669 18.3541 130.74 18.7343C130.811 19.1026 130.948 19.4411 131.15 19.75C131.34 20.047 131.595 20.2431 131.916 20.3381C132.249 20.4332 132.581 20.4807 132.914 20.4807ZM140.342 10.3051C140.331 10.6021 140.218 10.8457 140.004 11.0358C139.802 11.214 139.558 11.3031 139.273 11.3031C138.988 11.3031 138.745 11.2021 138.543 11.0001C138.341 10.7982 138.24 10.5546 138.24 10.2695C138.24 9.9606 138.364 9.71705 138.614 9.53885C138.863 9.36064 139.119 9.27154 139.38 9.27154C139.689 9.27154 139.927 9.37846 140.093 9.59231C140.259 9.79428 140.342 10.0319 140.342 10.3051ZM140.093 14.4573L139.95 18.1996C139.95 18.8531 140.004 19.3639 140.111 19.7322C140.218 20.1005 140.426 20.2847 140.735 20.2847C141.079 20.2847 141.376 20.2074 141.626 20.053C141.887 19.8867 142.136 19.6966 142.374 19.4827L142.606 19.6609V19.857C142.404 20.1183 142.166 20.3856 141.893 20.6589C141.631 20.9203 141.346 21.14 141.037 21.3182C140.74 21.4965 140.426 21.5856 140.093 21.5856C139.843 21.5856 139.606 21.538 139.38 21.443C139.166 21.3598 138.994 21.1757 138.863 20.8906C138.733 20.6054 138.667 20.1718 138.667 19.5897L138.774 15.6513C138.774 15.188 138.727 14.8197 138.632 14.5464C138.549 14.2732 138.388 14.1366 138.151 14.1366C137.96 14.1366 137.729 14.2019 137.456 14.3326C137.182 14.4514 136.939 14.5761 136.725 14.7068L136.493 14.386C136.897 14.0653 137.325 13.7623 137.776 13.4772C138.24 13.1921 138.644 13.0495 138.988 13.0495C139.392 13.0495 139.677 13.1861 139.843 13.4594C140.01 13.7326 140.093 14.0653 140.093 14.4573ZM147.101 14.6177L146.121 15.2771L145.907 15.1523C145.883 14.7603 145.782 14.4336 145.604 14.1722C145.438 13.8989 145.152 13.7623 144.748 13.7623C144.333 13.7623 143.982 13.8989 143.697 14.1722C143.424 14.4454 143.287 14.79 143.287 15.2058C143.287 15.5622 143.448 15.8711 143.768 16.1325C144.101 16.382 144.594 16.6433 145.247 16.9166C145.937 17.2136 146.447 17.5284 146.78 17.8611C147.125 18.1937 147.297 18.5679 147.297 18.9838C147.297 19.5897 147.125 20.1005 146.78 20.5163C146.447 20.9203 146.02 21.2291 145.497 21.443C144.986 21.645 144.469 21.7459 143.947 21.7459C143.412 21.7459 142.913 21.639 142.45 21.4252C141.998 21.2113 141.624 20.8252 141.327 20.2668L142.2 19.0016L142.45 19.0194C142.485 19.5659 142.693 20.047 143.073 20.4629C143.454 20.8668 143.923 21.0688 144.481 21.0688C144.861 21.0688 145.206 20.9381 145.515 20.6767C145.836 20.4035 145.996 20.0827 145.996 19.7144C145.996 19.4055 145.907 19.1441 145.729 18.9303C145.55 18.7164 145.325 18.5323 145.051 18.3779C144.79 18.2234 144.517 18.0868 144.232 17.968C143.863 17.8135 143.507 17.6353 143.162 17.4334C142.818 17.2314 142.539 16.9878 142.325 16.7027C142.111 16.4176 142.004 16.079 142.004 15.6869C142.004 15.1523 142.159 14.6949 142.467 14.3148C142.776 13.9346 143.168 13.6435 143.644 13.4416C144.119 13.2396 144.6 13.1386 145.087 13.1386C145.396 13.1386 145.699 13.1861 145.996 13.2812C146.305 13.3762 146.56 13.5307 146.762 13.7445C146.976 13.9584 147.089 14.2494 147.101 14.6177Z" fill="#FAA984"/>
<path id="meltme" d="M52.3746 49.8708V24.5522H54.5809L66.1551 44.3007H64.9977L76.4634 24.5522H78.6697V49.8708H76.1017V28.567H76.7166L66.1551 46.6517H64.8892L54.2554 28.567H54.9426V49.8708H52.3746ZM91.5488 50.0516C89.5716 50.0516 87.8355 49.6417 86.3405 48.8219C84.8455 47.9779 83.676 46.8326 82.832 45.3858C81.9881 43.9149 81.5661 42.2391 81.5661 40.3582C81.5661 38.4774 81.964 36.8136 82.7597 35.3669C83.5795 33.9201 84.6887 32.7868 86.0873 31.967C87.5099 31.123 89.1014 30.701 90.8616 30.701C92.646 30.701 94.2254 31.1109 95.5998 31.9308C96.9984 32.7265 98.0955 33.8598 98.8912 35.3307C99.6869 36.7775 100.085 38.4533 100.085 40.3582C100.085 40.4788 100.073 40.6114 100.049 40.7561C100.049 40.8767 100.049 41.0093 100.049 41.154H83.5192V39.237H98.6742L97.6615 39.9966C97.6615 38.6221 97.3601 37.4044 96.7572 36.3434C96.1785 35.2584 95.3828 34.4144 94.3701 33.8116C93.3573 33.2088 92.1878 32.9074 90.8616 32.9074C89.5595 32.9074 88.39 33.2088 87.3532 33.8116C86.3163 34.4144 85.5086 35.2584 84.9298 36.3434C84.3511 37.4285 84.0618 38.6703 84.0618 40.0689V40.4668C84.0618 41.9135 84.3753 43.1915 85.0022 44.3007C85.6532 45.3858 86.5454 46.2418 87.6787 46.8687C88.8361 47.4716 90.1503 47.773 91.6212 47.773C92.7786 47.773 93.8516 47.568 94.8403 47.1581C95.853 46.7482 96.7211 46.1212 97.4444 45.2773L98.8912 46.9411C98.0473 47.9538 96.9863 48.7254 95.7083 49.2559C94.4544 49.7864 93.068 50.0516 91.5488 50.0516ZM102.418 49.8708V23.0331H104.986V49.8708H102.418ZM115.348 50.0516C113.564 50.0516 112.189 49.5694 111.225 48.6049C110.26 47.6403 109.778 46.278 109.778 44.5177V26.6862H112.346V44.373C112.346 45.4822 112.624 46.3382 113.178 46.9411C113.757 47.5439 114.577 47.8453 115.638 47.8453C116.771 47.8453 117.711 47.5198 118.459 46.8687L119.363 48.7134C118.857 49.1715 118.242 49.5091 117.518 49.7261C116.819 49.9431 116.096 50.0516 115.348 50.0516ZM106.378 33.0159V30.8819H118.133V33.0159H106.378ZM144.872 30.701C146.415 30.701 147.753 31.0024 148.886 31.6053C150.044 32.184 150.936 33.0761 151.563 34.2818C152.214 35.4874 152.539 37.0066 152.539 38.8391V49.8708H149.971V39.0923C149.971 37.0909 149.489 35.5839 148.525 34.5711C147.584 33.5343 146.246 33.0159 144.51 33.0159C143.208 33.0159 142.074 33.2932 141.11 33.8478C140.17 34.3782 139.434 35.1619 138.904 36.1988C138.397 37.2115 138.144 38.4413 138.144 39.888V49.8708H135.576V39.0923C135.576 37.0909 135.094 35.5839 134.129 34.5711C133.165 33.5343 131.814 33.0159 130.078 33.0159C128.8 33.0159 127.679 33.2932 126.715 33.8478C125.75 34.3782 125.002 35.1619 124.472 36.1988C123.966 37.2115 123.712 38.4413 123.712 39.888V49.8708H121.144V30.8819H123.604V36.0179L123.206 35.1137C123.785 33.7393 124.713 32.6662 125.991 31.8946C127.293 31.0989 128.824 30.701 130.585 30.701C132.441 30.701 134.021 31.1712 135.323 32.1116C136.625 33.0279 137.469 34.4144 137.855 36.2711L136.842 35.8732C137.397 34.33 138.373 33.0882 139.772 32.1478C141.194 31.1833 142.894 30.701 144.872 30.701ZM164.676 50.0516C162.699 50.0516 160.963 49.6417 159.468 48.8219C157.973 47.9779 156.803 46.8326 155.959 45.3858C155.115 43.9149 154.693 42.2391 154.693 40.3582C154.693 38.4774 155.091 36.8136 155.887 35.3669C156.707 33.9201 157.816 32.7868 159.214 31.967C160.637 31.123 162.228 30.701 163.989 30.701C165.773 30.701 167.352 31.1109 168.727 31.9308C170.125 32.7265 171.223 33.8598 172.018 35.3307C172.814 36.7775 173.212 38.4533 173.212 40.3582C173.212 40.4788 173.2 40.6114 173.176 40.7561C173.176 40.8767 173.176 41.0093 173.176 41.154H156.646V39.237H171.801L170.789 39.9966C170.789 38.6221 170.487 37.4044 169.884 36.3434C169.306 35.2584 168.51 34.4144 167.497 33.8116C166.484 33.2088 165.315 32.9074 163.989 32.9074C162.687 32.9074 161.517 33.2088 160.48 33.8116C159.443 34.4144 158.636 35.2584 158.057 36.3434C157.478 37.4285 157.189 38.6703 157.189 40.0689V40.4668C157.189 41.9135 157.502 43.1915 158.129 44.3007C158.78 45.3858 159.673 46.2418 160.806 46.8687C161.963 47.4716 163.277 47.773 164.748 47.773C165.906 47.773 166.979 47.568 167.967 47.1581C168.98 46.7482 169.848 46.1212 170.572 45.2773L172.018 46.9411C171.174 47.9538 170.113 48.7254 168.835 49.2559C167.582 49.7864 166.195 50.0516 164.676 50.0516Z" fill="#DE664F"/>
</g>
</g>
</g>
</g>
<defs>
<linearGradient id="paint0_linear_462_3193" x1="24.7343" y1="24.1546" x2="24.7343" y2="52.5781" gradientUnits="userSpaceOnUse">
<stop stop-color="#FAA984"/>
<stop offset="1" stop-color="#DE664F"/>
</linearGradient>
<linearGradient id="paint1_linear_462_3193" x1="24.5714" y1="8.43066" x2="24.3895" y2="26.8967" gradientUnits="userSpaceOnUse">
<stop stop-color="#FAA984"/>
<stop offset="1" stop-color="#DE664F"/>
</linearGradient>
</defs>
</svg>
